<?xml version="1.0" standalone="no"?>
<!DOCTYPE svg PUBLIC "-//W3C//DTD SVG 20010904//EN"
 "http://www.w3.org/TR/2001/REC-SVG-20010904/DTD/svg10.dtd">
<svg version="1.0" xmlns="http://www.w3.org/2000/svg"
 width="1241.000000pt" height="1280.000000pt" viewBox="0 0 1241.000000 1280.000000"
 preserveAspectRatio="xMidYMid meet">
<metadata>
Created by potrace 1.15, written by Peter Selinger 2001-2017
</metadata>
<g transform="translate(0.000000,1280.000000) scale(0.100000,-0.100000)"
fill="currentColor" stroke="none">
<path d="M5297 12053 l-747 -748 0 628 0 627 -1335 0 -1335 0 0 -1958 0 -1957
-940 -940 -940 -940 0 -147 0 -148 520 0 520 0 0 -3235 0 -3235 5150 0 5150 0
0 3235 0 3235 535 0 535 0 0 149 0 148 -727 709 c-401 390 -1326 1292 -2058
2004 -731 713 -1798 1751 -2369 2308 l-1039 1012 -86 0 -86 0 -748 -747z"/>
</g>
</svg>
